# xmcd CD database file
# Copyright (C) 1993-1998 Ti Kan
#
# Track frame offsets:
#	150
#	20716
#	37113
#	62312
#	83751
#	105655
#	127980
#	167987
#	190882
#	212138
#	237964
#	258170
#	277029
#	295669
#
# Disc length: 4225 seconds
#
# Revision: 1
# Processed by: cddbd v1.4b41PL1 Copyright (c) Steve Scherf et al.
# Submitted via: NotifyCDPlayer(CDDB) 1.51.3
#
DISCID=c6107f0e
DTITLE=Carlos Santana - Santana Story
DYEAR=1900
DGENRE=
TTITLE0=You Just Don't Care
TTITLE1=Black Magic Woman
TTITLE2=Taboo
TTITLE3=I Love You Much To Much
TTITLE4=Brightest Star
TTITLE5=Flor D'Luna
TTITLE6=Saja/Right On
TTITLE7=Europa (Earth's Cry Heaven's Smile
TTITLE8=Treat
TTITLE9=Everybody's Everything
TTITLE10=Bella
TTITLE11=Make Somebody Happy
TTITLE12=She's Not There
TTITLE13=Samba Pa Ti
EXTD=
EXTT0=
EXTT1=
EXTT2=
EXTT3=
EXTT4=
EXTT5=
EXTT6=
EXTT7=
EXTT8=
EXTT9=
EXTT10=
EXTT11=
EXTT12=
EXTT13=
PLAYORDER=
